REM DIRINDEX 1\2,1\4,1\3\5,1\3\6,1\3\7
REM DIRNAME folder01,folder02,folder03,folder04,folder05,folder06,folder07
TITLE ""
FILE "CD1Track69.mp3" MP3
  TRACK 01 AUDIO
    TITLE "0:"
    INDEX 01 00:00:00
  TRACK 02 AUDIO
    TITLE "4:cjc082_1286"
    INDEX 01 00:00:27
  TRACK 03 AUDIO
    TITLE "0:"
    INDEX 01 00:04:44
  TRACK 04 AUDIO
    TITLE "5:cjc082_1287"
    INDEX 01 00:05:12
  TRACK 05 AUDIO
    TITLE "0:"
    INDEX 01 00:06:26
  TRACK 06 AUDIO
    TITLE "6:cjc082_1288"
    INDEX 01 00:06:69
  TRACK 07 AUDIO
    TITLE "0:"
    INDEX 01 00:09:02
  TRACK 08 AUDIO
    TITLE "5:cjc082_1289"
    INDEX 01 00:09:45
  TRACK 09 AUDIO
    TITLE "0:"
    INDEX 01 00:10:61
  TRACK 10 AUDIO
    TITLE "6:cjc082_1290"
    INDEX 01 00:11:29
  TRACK 11 AUDIO
    TITLE "0:"
    INDEX 01 00:15:09
  TRACK 12 AUDIO
    TITLE "5:cjc082_1291"
    INDEX 01 00:15:50
  TRACK 13 AUDIO
    TITLE "0:"
    INDEX 01 00:17:02
  TRACK 14 AUDIO
    TITLE "6:cjc082_1292"
    INDEX 01 00:17:39
  TRACK 15 AUDIO
    TITLE "0:"
    INDEX 01 00:18:46
  TRACK 16 AUDIO
    TITLE "5:cjc082_1293"
    INDEX 01 00:19:11
  TRACK 17 AUDIO
    TITLE "0:"
    INDEX 01 00:20:34
  TRACK 18 AUDIO
    TITLE "6:cjc082_1294"
    INDEX 01 00:21:02
  TRACK 19 AUDIO
    TITLE "0:"
    INDEX 01 00:23:04
  TRACK 20 AUDIO
    TITLE "5:cjc082_1295"
    INDEX 01 00:23:42
  TRACK 21 AUDIO
    TITLE "0:"
    INDEX 01 00:24:43
  TRACK 22 AUDIO
    TITLE "6:cjc082_1296"
    INDEX 01 00:25:09
  TRACK 23 AUDIO
    TITLE "0:"
    INDEX 01 00:26:58
  TRACK 24 AUDIO
    TITLE "5:cjc082_1297"
    INDEX 01 00:27:24
  TRACK 25 AUDIO
    TITLE "0:"
    INDEX 01 00:28:39
  TRACK 26 AUDIO
    TITLE "6:cjc082_1298"
    INDEX 01 00:29:05
  TRACK 27 AUDIO
    TITLE "0:"
    INDEX 01 00:32:50
  TRACK 28 AUDIO
    TITLE "5:cjc082_1299"
    INDEX 01 00:33:19
  TRACK 29 AUDIO
    TITLE "0:"
    INDEX 01 00:34:32
  TRACK 30 AUDIO
    TITLE "6:cjc082_1300"
    INDEX 01 00:34:73
  TRACK 31 AUDIO
    TITLE "0:"
    INDEX 01 00:36:42
  TRACK 32 AUDIO
    TITLE "5:cjc082_1301"
    INDEX 01 00:37:12
  TRACK 33 AUDIO
    TITLE "0:"
    INDEX 01 00:38:71
  TRACK 34 AUDIO
    TITLE "6:cjc082_1302"
    INDEX 01 00:39:37
  TRACK 35 AUDIO
    TITLE "0:"
    INDEX 01 00:42:37
  TRACK 36 AUDIO
    TITLE "5:cjc082_1303"
    INDEX 01 00:43:07
  TRACK 37 AUDIO
    TITLE "0:"
    INDEX 01 00:44:20
  TRACK 38 AUDIO
    TITLE "6:cjc082_1304"
    INDEX 01 00:44:61
  TRACK 39 AUDIO
    TITLE "0:"
    INDEX 01 00:45:71
  TRACK 40 AUDIO
    TITLE "5:cjc082_1305"
    INDEX 01 00:46:47
  TRACK 41 AUDIO
    TITLE "0:"
    INDEX 01 00:47:66
  TRACK 42 AUDIO
    TITLE "6:cjc082_1306"
    INDEX 01 00:48:34
  TRACK 43 AUDIO
    TITLE "0:"
    INDEX 01 00:50:23
  TRACK 44 AUDIO
    TITLE "5:cjc082_1307"
    INDEX 01 00:50:62
  TRACK 45 AUDIO
    TITLE "0:"
    INDEX 01 00:51:73
  TRACK 46 AUDIO
    TITLE "6:cjc082_1308"
    INDEX 01 00:52:45
  TRACK 47 AUDIO
    TITLE "0:"
    INDEX 01 00:53:62
  TRACK 48 AUDIO
    TITLE "5:cjc082_1309"
    INDEX 01 00:54:25
  TRACK 49 AUDIO
    TITLE "0:"
    INDEX 01 00:55:42
  TRACK 50 AUDIO
    TITLE "6:cjc082_1310"
    INDEX 01 00:56:12
  TRACK 51 AUDIO
    TITLE "0:"
    INDEX 01 00:58:18
  TRACK 52 AUDIO
    TITLE "5:cjc082_1311"
    INDEX 01 00:58:58
  TRACK 53 AUDIO
    TITLE "0:"
    INDEX 01 01:00:08
  TRACK 54 AUDIO
    TITLE "6:cjc082_1312"
    INDEX 01 01:00:51
  TRACK 55 AUDIO
    TITLE "0:"
    INDEX 01 01:03:39
  TRACK 56 AUDIO
    TITLE "5:cjc082_1313"
    INDEX 01 01:04:05
  TRACK 57 AUDIO
    TITLE "0:"
    INDEX 01 01:05:09
  TRACK 58 AUDIO
    TITLE "6:cjc082_1314"
    INDEX 01 01:05:52
  TRACK 59 AUDIO
    TITLE "0:"
    INDEX 01 01:10:18
  TRACK 60 AUDIO
    TITLE "5:cjc082_1315"
    INDEX 01 01:10:55
  TRACK 61 AUDIO
    TITLE "0:"
    INDEX 01 01:11:72
  TRACK 62 AUDIO
    TITLE "6:cjc082_1316"
    INDEX 01 01:12:42
  TRACK 63 AUDIO
    TITLE "0:"
    INDEX 01 01:15:03
  TRACK 64 AUDIO
    TITLE "5:cjc082_1317"
    INDEX 01 01:15:40
  TRACK 65 AUDIO
    TITLE "0:"
    INDEX 01 01:17:24
  TRACK 66 AUDIO
    TITLE "6:cjc082_1318"
    INDEX 01 01:17:67
  TRACK 67 AUDIO
    TITLE "0:"
    INDEX 01 01:20:08
  TRACK 68 AUDIO
    TITLE "5:cjc082_1319"
    INDEX 01 01:20:44
  TRACK 69 AUDIO
    TITLE "0:"
    INDEX 01 01:21:61
  TRACK 70 AUDIO
    TITLE "6:cjc082_1320"
    INDEX 01 01:22:35
  TRACK 71 AUDIO
    TITLE "0:"
    INDEX 01 01:23:65
  TRACK 72 AUDIO
    TITLE "5:cjc082_1321"
    INDEX 01 01:24:32
  TRACK 73 AUDIO
    TITLE "0:"
    INDEX 01 01:25:66
  TRACK 74 AUDIO
    TITLE "6:cjc082_1322"
    INDEX 01 01:26:36
  TRACK 75 AUDIO
    TITLE "0:"
    INDEX 01 01:28:51
  TRACK 76 AUDIO
    TITLE "5:cjc082_1323"
    INDEX 01 01:29:15
  TRACK 77 AUDIO
    TITLE "0:"
    INDEX 01 01:30:38
  TRACK 78 AUDIO
    TITLE "6:cjc082_1324"
    INDEX 01 01:31:06
  TRACK 79 AUDIO
    TITLE "0:"
    INDEX 01 01:32:13
  TRACK 80 AUDIO
    TITLE "7:cjc082_1325"
    INDEX 01 01:33:48
  TRACK 81 AUDIO
    TITLE "0:"
    INDEX 01 01:44:19
  TRACK 82 AUDIO
    TITLE "4:cjc082_1326"
    INDEX 01 01:46:61
  TRACK 83 AUDIO
    TITLE "0:"
    INDEX 01 01:49:65
